<svg width="500" height="500" viewBox="0 0 500 500" fill="none" xmlns="http://www.w3.org/2000/svg">
<g clip-path="url(#clip0_109_8)">
<mask id="path-1-outside-1_109_8" maskUnits="userSpaceOnUse" x="88" y="-10" width="324" height="520" fill="black">
<rect fill="white" x="88" y="-10" width="324" height="520"/>
<path d="M243.642 1.09234C233.665 3.75405 227.31 10.4083 224.059 21.6467C220.807 32.885 227.606 45.75 239.799 51.3692L244.381 53.4394L244.528 96.1747C244.676 119.687 244.602 138.836 244.381 138.688C243.568 138.319 222.876 124.714 209.131 115.62C201.15 110.297 194.426 105.491 194.13 104.899C193.76 104.308 193.169 100.759 192.652 97.1359C192.209 93.4391 191.1 88.855 190.139 86.7848C187.627 81.2395 182.232 75.7682 176.764 73.0326C172.404 70.8884 171.591 70.7405 165.901 70.9624C161.024 71.1842 158.881 71.7017 155.555 73.3283C150.013 76.064 145.653 80.5741 142.845 86.4151C140.776 90.7773 140.554 91.8864 140.554 98.2449C140.554 104.825 140.702 105.565 143.066 109.927C146.022 115.324 149.865 118.799 156.146 121.683C159.693 123.309 161.467 123.679 166.049 123.679C172.404 123.605 176.173 122.348 181.937 118.577L185.927 115.916L214.969 135.361L244.011 154.806L243.937 195.693C243.863 218.17 243.568 236.802 243.346 237.024C243.124 237.32 231.005 230.296 216.447 221.571C201.963 212.773 185.927 203.235 180.828 200.277C175.729 197.32 171 194.436 170.335 193.845C169.67 193.253 168.931 191.035 168.635 188.965C167.748 182.089 165.901 175.952 163.832 172.625C161.097 168.337 155.26 163.753 150.53 162.2C140.037 158.725 126.661 162.792 120.823 171.294C113.138 182.459 113.803 195.471 122.523 205.083C131.834 215.213 145.579 216.396 157.994 207.967C160.063 206.562 162.058 205.453 162.428 205.453C163.98 205.453 239.282 249.223 242.385 251.885C243.494 252.846 243.642 254.473 243.642 263.937V274.805L238.69 276.728C235.882 277.763 230.192 279.685 225.906 280.942C221.62 282.199 212.309 285.526 205.141 288.262C197.973 291.071 187.775 294.842 182.454 296.691C177.133 298.613 167.527 302.162 161.097 304.602C154.668 307.042 145.283 310.591 140.184 312.365C127.178 317.023 125.479 318.206 121.266 325.008C119.419 328.188 114.394 335.359 110.182 340.905C100.427 353.917 98.5058 357.245 99.097 359.685C99.9837 363.012 102.644 364.712 113.803 369.148L124.666 373.437L124.814 383.862C124.887 389.629 124.814 407.004 124.74 422.457C124.666 437.909 124.887 450.996 125.257 451.514C125.922 452.475 157.107 465.266 177.872 473.029C184.597 475.543 196.421 480.053 204.106 483.085C221.472 489.887 247.041 499.351 249.627 499.942C252.805 500.755 273.053 493.214 347.247 463.713C369.564 454.767 374.441 452.623 375.106 451.144C375.698 449.961 375.919 437.54 375.919 412.253V375.063L380.944 372.993C383.679 371.81 388.63 369.444 391.955 367.67C395.354 365.895 398.532 364.416 399.123 364.416C399.714 364.416 400.749 363.677 401.34 362.864C402.818 360.72 402.818 360.794 390.329 342.975C384.787 335.064 379.245 326.561 378.062 324.121L375.845 319.611L349.464 309.112C334.98 303.345 317.761 296.691 311.258 294.251C300.765 290.406 262.781 275.914 258.717 274.214C257.461 273.696 257.091 272.735 256.722 268.964C256.057 262.828 256.13 255.582 256.796 254.473C257.313 253.586 295.296 230.813 325.225 213.364C336.532 206.784 339.414 205.379 340.374 206.044C353.75 215.582 365.574 215.952 376.141 207.375C379.097 205.009 380.723 202.865 382.94 198.281C385.896 192.292 385.896 192.292 385.452 185.786C384.935 178.17 383.383 174.547 378.432 169.224C372.077 162.422 363.726 159.538 355.597 161.461C348.577 163.087 344.66 165.157 340.448 169.668C335.571 174.843 333.28 179.871 332.393 187.56C331.654 194.584 332.319 193.771 321.604 200.129C293.006 216.987 257.017 237.985 256.648 237.985C256.426 237.985 256.204 219.575 256.204 197.098V156.137L257.904 154.659C259.382 153.254 288.646 133.661 307.785 121.239L316.136 115.768L317.761 117.247C322.639 121.609 331.137 124.566 336.975 123.901C338.97 123.605 342.665 122.496 345.178 121.313C355.597 116.433 360.548 108.744 360.475 97.2838C360.475 84.7146 352.42 74.2895 340.374 71.1842C332.984 69.2618 324.856 71.406 317.983 77.0991C311.997 82.0528 307.342 92.7736 307.268 101.794L307.194 105.713L296.109 112.884C289.976 116.803 278.891 124.049 271.501 128.929C264.111 133.808 257.608 138.023 257.165 138.392C256.426 138.836 256.204 130.186 256.204 95.879V52.774L260.49 50.7777C265.959 48.2638 270.91 44.4191 273.423 40.7963C276.379 36.5079 277.93 28.301 276.822 22.9036C274.457 11.5174 266.476 3.2365 255.318 0.648717C251.105 -0.312458 248.519 -0.238522 243.642 1.09234ZM255.318 13.6615C265.072 17.7281 267.88 30.3712 260.638 37.617C254.283 43.9755 243.937 42.8665 238.469 35.3249C230.044 23.643 242.09 8.11631 255.318 13.6615ZM173.512 85.1582C178.537 88.4114 181.419 97.5056 179.276 103.199C175.508 113.254 160.876 114.511 154.964 105.195C152.156 100.759 151.565 97.3577 152.673 93.0694C154.299 86.9326 159.176 83.5316 166.492 83.4576C169.965 83.4576 171.591 83.8273 173.512 85.1582ZM340.374 84.4927C346.064 87.4502 349.39 94.5481 347.912 100.463C344.217 114.511 328.846 116.212 322.417 103.347C317.244 92.8476 322.639 83.4576 334.019 83.4576C336.384 83.4576 339.266 83.9752 340.374 84.4927ZM148.165 174.473C153.043 176.839 155.333 180.832 155.333 186.969C155.333 191.109 155.038 192.366 153.264 195.028C151.121 198.207 145.283 201.756 142.032 201.756C134.346 201.756 126.883 194.215 126.883 186.377C126.883 184.085 128.878 179.575 130.799 177.431C134.864 172.995 142.401 171.738 148.165 174.473ZM366.978 175.361C370.82 177.875 372.963 182.089 372.963 186.895C372.963 191.405 372.003 194.067 369.416 196.876C360.622 206.266 344.882 198.577 344.882 184.825C344.882 181.719 345.252 180.684 347.247 178.392C352.346 172.551 360.77 171.294 366.978 175.361ZM244.307 329.223C244.381 357.688 244.307 359.389 243.124 358.871C242.385 358.575 239.651 357.614 236.991 356.653C234.331 355.766 228.566 353.4 224.059 351.478C213.787 347.115 196.569 340.313 173.882 331.737C152.895 323.825 148.239 321.829 149.791 321.311C150.382 321.164 152.895 320.424 155.333 319.685C159.398 318.576 192.356 306.302 228.862 292.402L243.272 286.931L243.789 292.994C244.011 296.247 244.233 312.587 244.307 329.223ZM289.458 298.835C297.366 302.162 339.118 317.836 345.843 320.055C348.651 320.942 350.646 321.977 350.277 322.273C349.685 322.864 317.244 335.729 295.74 343.936C288.867 346.598 277.265 351.108 270.023 353.991C262.855 356.875 256.796 359.241 256.574 359.241C256.352 359.241 256.204 342.975 256.204 323.086V286.931L269.728 291.589C277.118 294.177 285.985 297.43 289.458 298.835ZM375.18 341.866C380.279 348.964 384.491 355.1 384.639 355.47C385.083 356.875 371.855 362.42 330.841 378.243C317.614 383.27 301.208 389.777 294.336 392.586C287.463 395.396 281.477 397.688 280.96 397.688C280.517 397.688 278.669 395.322 276.822 392.438C275.048 389.629 271.132 383.566 268.176 379.056C262.116 369.888 261.525 368.853 262.855 368.853C264.038 368.853 292.341 358.206 307.564 352.069C314.067 349.407 327.812 344.158 338.083 340.313C348.429 336.468 358.701 332.402 360.992 331.219C363.357 330.11 365.352 329.149 365.574 329.075C365.795 329.075 370.081 334.768 375.18 341.866ZM144.249 333.437C149.569 335.507 160.654 339.796 169.005 342.975C177.355 346.154 193.834 352.513 205.584 357.023C217.408 361.607 229.749 366.191 233.148 367.226C236.474 368.261 239.134 369.37 239.06 369.592C238.912 369.814 234.7 376.394 229.749 384.084L220.585 398.131L211.644 394.583C206.693 392.586 192.8 387.189 180.828 382.531C145.431 368.927 114.763 356.431 114.468 355.618C114.024 354.361 132.277 329.666 133.533 329.666C134.125 329.666 139.002 331.367 144.249 333.437ZM152.599 383.936C160.58 387.337 173.808 392.66 181.937 395.766C190.066 398.871 201.963 403.603 208.318 406.191C214.674 408.852 220.142 410.996 220.364 410.996C223.098 410.996 226.645 407.595 234.035 397.984C238.543 392.143 242.533 387.189 242.977 386.967C243.346 386.671 243.642 387.78 243.642 389.333C243.716 390.886 243.863 413.362 244.085 439.24C244.307 465.192 244.381 486.412 244.233 486.412C243.124 486.412 233.444 482.641 216.299 475.469C188.366 463.861 164.645 454.397 150.161 449.074L137.598 444.49L137.376 411.144C137.302 392.734 137.376 377.725 137.598 377.725C137.82 377.725 144.544 380.535 152.599 383.936ZM364.096 387.115C364.465 399.241 364.465 399.241 363.8 423.196L363.135 444.638L355.671 447.521C351.607 449.074 327.886 458.464 303.056 468.371C278.226 478.279 257.461 486.412 257.017 486.412C256.426 486.412 256.204 472.66 256.204 435.248C256.204 405.969 256.5 384.379 256.869 384.823C257.239 385.193 259.899 388.815 262.855 392.882C272.61 406.265 273.57 407.374 276.009 408.926C277.635 409.887 279.113 410.257 280.517 410.035C281.625 409.813 292.858 405.525 305.42 400.645C317.983 395.692 333.428 389.703 339.709 387.337C345.991 385.045 353.528 382.087 356.336 380.83C364.243 377.429 363.8 377.134 364.096 387.115Z"/>
</mask>
<path d="M243.642 1.09234C233.665 3.75405 227.31 10.4083 224.059 21.6467C220.807 32.885 227.606 45.75 239.799 51.3692L244.381 53.4394L244.528 96.1747C244.676 119.687 244.602 138.836 244.381 138.688C243.568 138.319 222.876 124.714 209.131 115.62C201.15 110.297 194.426 105.491 194.13 104.899C193.76 104.308 193.169 100.759 192.652 97.1359C192.209 93.4391 191.1 88.855 190.139 86.7848C187.627 81.2395 182.232 75.7682 176.764 73.0326C172.404 70.8884 171.591 70.7405 165.901 70.9624C161.024 71.1842 158.881 71.7017 155.555 73.3283C150.013 76.064 145.653 80.5741 142.845 86.4151C140.776 90.7773 140.554 91.8864 140.554 98.2449C140.554 104.825 140.702 105.565 143.066 109.927C146.022 115.324 149.865 118.799 156.146 121.683C159.693 123.309 161.467 123.679 166.049 123.679C172.404 123.605 176.173 122.348 181.937 118.577L185.927 115.916L214.969 135.361L244.011 154.806L243.937 195.693C243.863 218.17 243.568 236.802 243.346 237.024C243.124 237.32 231.005 230.296 216.447 221.571C201.963 212.773 185.927 203.235 180.828 200.277C175.729 197.32 171 194.436 170.335 193.845C169.67 193.253 168.931 191.035 168.635 188.965C167.748 182.089 165.901 175.952 163.832 172.625C161.097 168.337 155.26 163.753 150.53 162.2C140.037 158.725 126.661 162.792 120.823 171.294C113.138 182.459 113.803 195.471 122.523 205.083C131.834 215.213 145.579 216.396 157.994 207.967C160.063 206.562 162.058 205.453 162.428 205.453C163.98 205.453 239.282 249.223 242.385 251.885C243.494 252.846 243.642 254.473 243.642 263.937V274.805L238.69 276.728C235.882 277.763 230.192 279.685 225.906 280.942C221.62 282.199 212.309 285.526 205.141 288.262C197.973 291.071 187.775 294.842 182.454 296.691C177.133 298.613 167.527 302.162 161.097 304.602C154.668 307.042 145.283 310.591 140.184 312.365C127.178 317.023 125.479 318.206 121.266 325.008C119.419 328.188 114.394 335.359 110.182 340.905C100.427 353.917 98.5058 357.245 99.097 359.685C99.9837 363.012 102.644 364.712 113.803 369.148L124.666 373.437L124.814 383.862C124.887 389.629 124.814 407.004 124.74 422.457C124.666 437.909 124.887 450.996 125.257 451.514C125.922 452.475 157.107 465.266 177.872 473.029C184.597 475.543 196.421 480.053 204.106 483.085C221.472 489.887 247.041 499.351 249.627 499.942C252.805 500.755 273.053 493.214 347.247 463.713C369.564 454.767 374.441 452.623 375.106 451.144C375.698 449.961 375.919 437.54 375.919 412.253V375.063L380.944 372.993C383.679 371.81 388.63 369.444 391.955 367.67C395.354 365.895 398.532 364.416 399.123 364.416C399.714 364.416 400.749 363.677 401.34 362.864C402.818 360.72 402.818 360.794 390.329 342.975C384.787 335.064 379.245 326.561 378.062 324.121L375.845 319.611L349.464 309.112C334.98 303.345 317.761 296.691 311.258 294.251C300.765 290.406 262.781 275.914 258.717 274.214C257.461 273.696 257.091 272.735 256.722 268.964C256.057 262.828 256.13 255.582 256.796 254.473C257.313 253.586 295.296 230.813 325.225 213.364C336.532 206.784 339.414 205.379 340.374 206.044C353.75 215.582 365.574 215.952 376.141 207.375C379.097 205.009 380.723 202.865 382.94 198.281C385.896 192.292 385.896 192.292 385.452 185.786C384.935 178.17 383.383 174.547 378.432 169.224C372.077 162.422 363.726 159.538 355.597 161.461C348.577 163.087 344.66 165.157 340.448 169.668C335.571 174.843 333.28 179.871 332.393 187.56C331.654 194.584 332.319 193.771 321.604 200.129C293.006 216.987 257.017 237.985 256.648 237.985C256.426 237.985 256.204 219.575 256.204 197.098V156.137L257.904 154.659C259.382 153.254 288.646 133.661 307.785 121.239L316.136 115.768L317.761 117.247C322.639 121.609 331.137 124.566 336.975 123.901C338.97 123.605 342.665 122.496 345.178 121.313C355.597 116.433 360.548 108.744 360.475 97.2838C360.475 84.7146 352.42 74.2895 340.374 71.1842C332.984 69.2618 324.856 71.406 317.983 77.0991C311.997 82.0528 307.342 92.7736 307.268 101.794L307.194 105.713L296.109 112.884C289.976 116.803 278.891 124.049 271.501 128.929C264.111 133.808 257.608 138.023 257.165 138.392C256.426 138.836 256.204 130.186 256.204 95.879V52.774L260.49 50.7777C265.959 48.2638 270.91 44.4191 273.423 40.7963C276.379 36.5079 277.93 28.301 276.822 22.9036C274.457 11.5174 266.476 3.2365 255.318 0.648717C251.105 -0.312458 248.519 -0.238522 243.642 1.09234ZM255.318 13.6615C265.072 17.7281 267.88 30.3712 260.638 37.617C254.283 43.9755 243.937 42.8665 238.469 35.3249C230.044 23.643 242.09 8.11631 255.318 13.6615ZM173.512 85.1582C178.537 88.4114 181.419 97.5056 179.276 103.199C175.508 113.254 160.876 114.511 154.964 105.195C152.156 100.759 151.565 97.3577 152.673 93.0694C154.299 86.9326 159.176 83.5316 166.492 83.4576C169.965 83.4576 171.591 83.8273 173.512 85.1582ZM340.374 84.4927C346.064 87.4502 349.39 94.5481 347.912 100.463C344.217 114.511 328.846 116.212 322.417 103.347C317.244 92.8476 322.639 83.4576 334.019 83.4576C336.384 83.4576 339.266 83.9752 340.374 84.4927ZM148.165 174.473C153.043 176.839 155.333 180.832 155.333 186.969C155.333 191.109 155.038 192.366 153.264 195.028C151.121 198.207 145.283 201.756 142.032 201.756C134.346 201.756 126.883 194.215 126.883 186.377C126.883 184.085 128.878 179.575 130.799 177.431C134.864 172.995 142.401 171.738 148.165 174.473ZM366.978 175.361C370.82 177.875 372.963 182.089 372.963 186.895C372.963 191.405 372.003 194.067 369.416 196.876C360.622 206.266 344.882 198.577 344.882 184.825C344.882 181.719 345.252 180.684 347.247 178.392C352.346 172.551 360.77 171.294 366.978 175.361ZM244.307 329.223C244.381 357.688 244.307 359.389 243.124 358.871C242.385 358.575 239.651 357.614 236.991 356.653C234.331 355.766 228.566 353.4 224.059 351.478C213.787 347.115 196.569 340.313 173.882 331.737C152.895 323.825 148.239 321.829 149.791 321.311C150.382 321.164 152.895 320.424 155.333 319.685C159.398 318.576 192.356 306.302 228.862 292.402L243.272 286.931L243.789 292.994C244.011 296.247 244.233 312.587 244.307 329.223ZM289.458 298.835C297.366 302.162 339.118 317.836 345.843 320.055C348.651 320.942 350.646 321.977 350.277 322.273C349.685 322.864 317.244 335.729 295.74 343.936C288.867 346.598 277.265 351.108 270.023 353.991C262.855 356.875 256.796 359.241 256.574 359.241C256.352 359.241 256.204 342.975 256.204 323.086V286.931L269.728 291.589C277.118 294.177 285.985 297.43 289.458 298.835ZM375.18 341.866C380.279 348.964 384.491 355.1 384.639 355.47C385.083 356.875 371.855 362.42 330.841 378.243C317.614 383.27 301.208 389.777 294.336 392.586C287.463 395.396 281.477 397.688 280.96 397.688C280.517 397.688 278.669 395.322 276.822 392.438C275.048 389.629 271.132 383.566 268.176 379.056C262.116 369.888 261.525 368.853 262.855 368.853C264.038 368.853 292.341 358.206 307.564 352.069C314.067 349.407 327.812 344.158 338.083 340.313C348.429 336.468 358.701 332.402 360.992 331.219C363.357 330.11 365.352 329.149 365.574 329.075C365.795 329.075 370.081 334.768 375.18 341.866ZM144.249 333.437C149.569 335.507 160.654 339.796 169.005 342.975C177.355 346.154 193.834 352.513 205.584 357.023C217.408 361.607 229.749 366.191 233.148 367.226C236.474 368.261 239.134 369.37 239.06 369.592C238.912 369.814 234.7 376.394 229.749 384.084L220.585 398.131L211.644 394.583C206.693 392.586 192.8 387.189 180.828 382.531C145.431 368.927 114.763 356.431 114.468 355.618C114.024 354.361 132.277 329.666 133.533 329.666C134.125 329.666 139.002 331.367 144.249 333.437ZM152.599 383.936C160.58 387.337 173.808 392.66 181.937 395.766C190.066 398.871 201.963 403.603 208.318 406.191C214.674 408.852 220.142 410.996 220.364 410.996C223.098 410.996 226.645 407.595 234.035 397.984C238.543 392.143 242.533 387.189 242.977 386.967C243.346 386.671 243.642 387.78 243.642 389.333C243.716 390.886 243.863 413.362 244.085 439.24C244.307 465.192 244.381 486.412 244.233 486.412C243.124 486.412 233.444 482.641 216.299 475.469C188.366 463.861 164.645 454.397 150.161 449.074L137.598 444.49L137.376 411.144C137.302 392.734 137.376 377.725 137.598 377.725C137.82 377.725 144.544 380.535 152.599 383.936ZM364.096 387.115C364.465 399.241 364.465 399.241 363.8 423.196L363.135 444.638L355.671 447.521C351.607 449.074 327.886 458.464 303.056 468.371C278.226 478.279 257.461 486.412 257.017 486.412C256.426 486.412 256.204 472.66 256.204 435.248C256.204 405.969 256.5 384.379 256.869 384.823C257.239 385.193 259.899 388.815 262.855 392.882C272.61 406.265 273.57 407.374 276.009 408.926C277.635 409.887 279.113 410.257 280.517 410.035C281.625 409.813 292.858 405.525 305.42 400.645C317.983 395.692 333.428 389.703 339.709 387.337C345.991 385.045 353.528 382.087 356.336 380.83C364.243 377.429 363.8 377.134 364.096 387.115Z" fill="white"/>
<path d="M243.642 1.09234C233.665 3.75405 227.31 10.4083 224.059 21.6467C220.807 32.885 227.606 45.75 239.799 51.3692L244.381 53.4394L244.528 96.1747C244.676 119.687 244.602 138.836 244.381 138.688C243.568 138.319 222.876 124.714 209.131 115.62C201.15 110.297 194.426 105.491 194.13 104.899C193.76 104.308 193.169 100.759 192.652 97.1359C192.209 93.4391 191.1 88.855 190.139 86.7848C187.627 81.2395 182.232 75.7682 176.764 73.0326C172.404 70.8884 171.591 70.7405 165.901 70.9624C161.024 71.1842 158.881 71.7017 155.555 73.3283C150.013 76.064 145.653 80.5741 142.845 86.4151C140.776 90.7773 140.554 91.8864 140.554 98.2449C140.554 104.825 140.702 105.565 143.066 109.927C146.022 115.324 149.865 118.799 156.146 121.683C159.693 123.309 161.467 123.679 166.049 123.679C172.404 123.605 176.173 122.348 181.937 118.577L185.927 115.916L214.969 135.361L244.011 154.806L243.937 195.693C243.863 218.17 243.568 236.802 243.346 237.024C243.124 237.32 231.005 230.296 216.447 221.571C201.963 212.773 185.927 203.235 180.828 200.277C175.729 197.32 171 194.436 170.335 193.845C169.67 193.253 168.931 191.035 168.635 188.965C167.748 182.089 165.901 175.952 163.832 172.625C161.097 168.337 155.26 163.753 150.53 162.2C140.037 158.725 126.661 162.792 120.823 171.294C113.138 182.459 113.803 195.471 122.523 205.083C131.834 215.213 145.579 216.396 157.994 207.967C160.063 206.562 162.058 205.453 162.428 205.453C163.98 205.453 239.282 249.223 242.385 251.885C243.494 252.846 243.642 254.473 243.642 263.937V274.805L238.69 276.728C235.882 277.763 230.192 279.685 225.906 280.942C221.62 282.199 212.309 285.526 205.141 288.262C197.973 291.071 187.775 294.842 182.454 296.691C177.133 298.613 167.527 302.162 161.097 304.602C154.668 307.042 145.283 310.591 140.184 312.365C127.178 317.023 125.479 318.206 121.266 325.008C119.419 328.188 114.394 335.359 110.182 340.905C100.427 353.917 98.5058 357.245 99.097 359.685C99.9837 363.012 102.644 364.712 113.803 369.148L124.666 373.437L124.814 383.862C124.887 389.629 124.814 407.004 124.74 422.457C124.666 437.909 124.887 450.996 125.257 451.514C125.922 452.475 157.107 465.266 177.872 473.029C184.597 475.543 196.421 480.053 204.106 483.085C221.472 489.887 247.041 499.351 249.627 499.942C252.805 500.755 273.053 493.214 347.247 463.713C369.564 454.767 374.441 452.623 375.106 451.144C375.698 449.961 375.919 437.54 375.919 412.253V375.063L380.944 372.993C383.679 371.81 388.63 369.444 391.955 367.67C395.354 365.895 398.532 364.416 399.123 364.416C399.714 364.416 400.749 363.677 401.34 362.864C402.818 360.72 402.818 360.794 390.329 342.975C384.787 335.064 379.245 326.561 378.062 324.121L375.845 319.611L349.464 309.112C334.98 303.345 317.761 296.691 311.258 294.251C300.765 290.406 262.781 275.914 258.717 274.214C257.461 273.696 257.091 272.735 256.722 268.964C256.057 262.828 256.13 255.582 256.796 254.473C257.313 253.586 295.296 230.813 325.225 213.364C336.532 206.784 339.414 205.379 340.374 206.044C353.75 215.582 365.574 215.952 376.141 207.375C379.097 205.009 380.723 202.865 382.94 198.281C385.896 192.292 385.896 192.292 385.452 185.786C384.935 178.17 383.383 174.547 378.432 169.224C372.077 162.422 363.726 159.538 355.597 161.461C348.577 163.087 344.66 165.157 340.448 169.668C335.571 174.843 333.28 179.871 332.393 187.56C331.654 194.584 332.319 193.771 321.604 200.129C293.006 216.987 257.017 237.985 256.648 237.985C256.426 237.985 256.204 219.575 256.204 197.098V156.137L257.904 154.659C259.382 153.254 288.646 133.661 307.785 121.239L316.136 115.768L317.761 117.247C322.639 121.609 331.137 124.566 336.975 123.901C338.97 123.605 342.665 122.496 345.178 121.313C355.597 116.433 360.548 108.744 360.475 97.2838C360.475 84.7146 352.42 74.2895 340.374 71.1842C332.984 69.2618 324.856 71.406 317.983 77.0991C311.997 82.0528 307.342 92.7736 307.268 101.794L307.194 105.713L296.109 112.884C289.976 116.803 278.891 124.049 271.501 128.929C264.111 133.808 257.608 138.023 257.165 138.392C256.426 138.836 256.204 130.186 256.204 95.879V52.774L260.49 50.7777C265.959 48.2638 270.91 44.4191 273.423 40.7963C276.379 36.5079 277.93 28.301 276.822 22.9036C274.457 11.5174 266.476 3.2365 255.318 0.648717C251.105 -0.312458 248.519 -0.238522 243.642 1.09234ZM255.318 13.6615C265.072 17.7281 267.88 30.3712 260.638 37.617C254.283 43.9755 243.937 42.8665 238.469 35.3249C230.044 23.643 242.09 8.11631 255.318 13.6615ZM173.512 85.1582C178.537 88.4114 181.419 97.5056 179.276 103.199C175.508 113.254 160.876 114.511 154.964 105.195C152.156 100.759 151.565 97.3577 152.673 93.0694C154.299 86.9326 159.176 83.5316 166.492 83.4576C169.965 83.4576 171.591 83.8273 173.512 85.1582ZM340.374 84.4927C346.064 87.4502 349.39 94.5481 347.912 100.463C344.217 114.511 328.846 116.212 322.417 103.347C317.244 92.8476 322.639 83.4576 334.019 83.4576C336.384 83.4576 339.266 83.9752 340.374 84.4927ZM148.165 174.473C153.043 176.839 155.333 180.832 155.333 186.969C155.333 191.109 155.038 192.366 153.264 195.028C151.121 198.207 145.283 201.756 142.032 201.756C134.346 201.756 126.883 194.215 126.883 186.377C126.883 184.085 128.878 179.575 130.799 177.431C134.864 172.995 142.401 171.738 148.165 174.473ZM366.978 175.361C370.82 177.875 372.963 182.089 372.963 186.895C372.963 191.405 372.003 194.067 369.416 196.876C360.622 206.266 344.882 198.577 344.882 184.825C344.882 181.719 345.252 180.684 347.247 178.392C352.346 172.551 360.77 171.294 366.978 175.361ZM244.307 329.223C244.381 357.688 244.307 359.389 243.124 358.871C242.385 358.575 239.651 357.614 236.991 356.653C234.331 355.766 228.566 353.4 224.059 351.478C213.787 347.115 196.569 340.313 173.882 331.737C152.895 323.825 148.239 321.829 149.791 321.311C150.382 321.164 152.895 320.424 155.333 319.685C159.398 318.576 192.356 306.302 228.862 292.402L243.272 286.931L243.789 292.994C244.011 296.247 244.233 312.587 244.307 329.223ZM289.458 298.835C297.366 302.162 339.118 317.836 345.843 320.055C348.651 320.942 350.646 321.977 350.277 322.273C349.685 322.864 317.244 335.729 295.74 343.936C288.867 346.598 277.265 351.108 270.023 353.991C262.855 356.875 256.796 359.241 256.574 359.241C256.352 359.241 256.204 342.975 256.204 323.086V286.931L269.728 291.589C277.118 294.177 285.985 297.43 289.458 298.835ZM375.18 341.866C380.279 348.964 384.491 355.1 384.639 355.47C385.083 356.875 371.855 362.42 330.841 378.243C317.614 383.27 301.208 389.777 294.336 392.586C287.463 395.396 281.477 397.688 280.96 397.688C280.517 397.688 278.669 395.322 276.822 392.438C275.048 389.629 271.132 383.566 268.176 379.056C262.116 369.888 261.525 368.853 262.855 368.853C264.038 368.853 292.341 358.206 307.564 352.069C314.067 349.407 327.812 344.158 338.083 340.313C348.429 336.468 358.701 332.402 360.992 331.219C363.357 330.11 365.352 329.149 365.574 329.075C365.795 329.075 370.081 334.768 375.18 341.866ZM144.249 333.437C149.569 335.507 160.654 339.796 169.005 342.975C177.355 346.154 193.834 352.513 205.584 357.023C217.408 361.607 229.749 366.191 233.148 367.226C236.474 368.261 239.134 369.37 239.06 369.592C238.912 369.814 234.7 376.394 229.749 384.084L220.585 398.131L211.644 394.583C206.693 392.586 192.8 387.189 180.828 382.531C145.431 368.927 114.763 356.431 114.468 355.618C114.024 354.361 132.277 329.666 133.533 329.666C134.125 329.666 139.002 331.367 144.249 333.437ZM152.599 383.936C160.58 387.337 173.808 392.66 181.937 395.766C190.066 398.871 201.963 403.603 208.318 406.191C214.674 408.852 220.142 410.996 220.364 410.996C223.098 410.996 226.645 407.595 234.035 397.984C238.543 392.143 242.533 387.189 242.977 386.967C243.346 386.671 243.642 387.78 243.642 389.333C243.716 390.886 243.863 413.362 244.085 439.24C244.307 465.192 244.381 486.412 244.233 486.412C243.124 486.412 233.444 482.641 216.299 475.469C188.366 463.861 164.645 454.397 150.161 449.074L137.598 444.49L137.376 411.144C137.302 392.734 137.376 377.725 137.598 377.725C137.82 377.725 144.544 380.535 152.599 383.936ZM364.096 387.115C364.465 399.241 364.465 399.241 363.8 423.196L363.135 444.638L355.671 447.521C351.607 449.074 327.886 458.464 303.056 468.371C278.226 478.279 257.461 486.412 257.017 486.412C256.426 486.412 256.204 472.66 256.204 435.248C256.204 405.969 256.5 384.379 256.869 384.823C257.239 385.193 259.899 388.815 262.855 392.882C272.61 406.265 273.57 407.374 276.009 408.926C277.635 409.887 279.113 410.257 280.517 410.035C281.625 409.813 292.858 405.525 305.42 400.645C317.983 395.692 333.428 389.703 339.709 387.337C345.991 385.045 353.528 382.087 356.336 380.83C364.243 377.429 363.8 377.134 364.096 387.115Z" stroke="white" stroke-width="20" mask="url(#path-1-outside-1_109_8)"/>
</g>
<defs>
<clipPath id="clip0_109_8">
<rect width="500" height="500" fill="white"/>
</clipPath>
</defs>
</svg>
